<?xml version="1.0" encoding="UTF-8" standalone="no"?>
<svg version="1.0" width="960" height="960" viewBox="0 0 720 720" preserveAspectRatio="xMidYMid">
    <g transform="matrix(0.1,0,0,-0.1,-88.996556,802.5)" stroke="none" id="g3">
        <g id="g4" transform="translate(0.63903061,-64.994083)">
            <path fill="{{COLOR_PRIMARY}}"
                d="m 1905,8023 c -394,-12 -636,-118 -830,-364 -81,-102 -132,-217 -170,-380 -13,-58 -15,-385 -15,-2794 0,-2937 -3,-2736 47,-2905 22,-72 92,-207 145,-277 69,-91 186,-185 302,-242 57,-28 110,-51 117,-51 7,0 31,-6 54,-14 117,-41 99,-41 2935,-41 2888,0 2775,-2 2940,46 244,71 446,240 550,459 49,102 69,158 80,220 30,176 31,223 27,2860 -3,2318 -6,2664 -19,2725 -45,211 -130,368 -269,501 -56,52 -164,125 -234,157 -22,10 -53,25 -68,33 -16,8 -36,14 -45,14 -9,0 -34,6 -57,14 -113,39 -130,39 -2815,41 -1427,0 -2631,0 -2675,-2 z m 1810,-887 c 84,-16 114,-29 181,-77 83,-61 163,-184 136,-211 -8,-8 -15,-8 -24,-1 -39,30 -137,34 -748,30 -694,-4 -691,-4 -830,-83 -77,-45 -167,-135 -193,-194 -4,-8 -11,-22 -16,-30 -42,-71 -44,-90 -50,-365 l -6,-270 h -135 -135 l -3,410 c -4,491 1,525 86,633 37,46 133,122 155,122 7,0 18,5 25,12 30,30 147,36 817,37 530,1 685,-2 740,-13 z m 3010,0 c 65,-13 107,-28 161,-59 56,-33 137,-123 163,-182 11,-26 41,-128 41,-140 0,-13 -27,-2 -69,28 -55,40 -118,70 -186,88 -39,10 -249,13 -970,15 l -920,1 -3,25 c -4,37 103,149 176,184 105,51 127,52 857,53 543,1 694,-2 750,-13 z m 87,-597 c 55,-28 94,-65 118,-111 16,-32 23,-77 35,-236 8,-108 15,-244 15,-302 -1,-96 14,-384 41,-840 5,-96 14,-271 19,-388 5,-117 14,-261 20,-320 5,-59 10,-154 10,-212 0,-58 7,-223 16,-366 17,-254 17,-264 -2,-328 -10,-37 -29,-79 -41,-94 -20,-26 -22,-26 -28,-7 -3,11 -13,33 -21,48 -7,16 -14,36 -14,46 0,9 -7,26 -15,37 -8,10 -15,28 -15,39 0,11 -6,29 -14,40 -7,11 -16,31 -19,45 -3,14 -15,50 -26,80 -42,106 -52,135 -60,165 -4,17 -12,39 -18,50 -23,44 -43,97 -43,113 0,10 -7,27 -15,38 -8,10 -15,28 -15,40 0,11 -7,29 -15,40 -8,10 -15,27 -15,36 0,17 -20,69 -46,120 -8,14 -14,34 -14,43 0,9 -6,29 -14,43 -13,25 -29,66 -62,155 -8,20 -20,54 -28,75 -8,20 -21,56 -30,80 -9,23 -23,61 -32,85 -8,23 -22,55 -30,70 -8,16 -14,36 -14,46 0,9 -7,26 -15,37 -8,10 -15,25 -15,32 0,7 -21,57 -47,110 -40,84 -59,109 -137,187 -87,86 -138,120 -251,165 -107,43 -106,43 -750,50 -676,7 -670,6 -753,66 -20,15 -66,65 -101,113 -74,99 -145,162 -234,208 -173,88 -161,87 -957,93 l -695,5 -3,220 c -2,179 0,228 13,261 18,49 65,98 117,125 35,18 65,19 648,19 666,0 628,3 708,-57 35,-26 72,-89 72,-123 0,-45 61,-149 120,-203 63,-59 94,-77 180,-108 51,-18 85,-19 565,-19 461,0 515,-2 559,-17 63,-23 106,-78 106,-135 0,-82 68,-179 153,-216 82,-36 166,-43 482,-40 l 300,3 3,149 c 2,113 -1,151 -10,158 -7,4 -147,8 -310,8 -334,0 -301,-9 -314,84 -4,27 -17,67 -30,90 -33,57 -120,142 -168,164 -23,10 -59,27 -81,38 -37,18 -72,19 -555,21 -587,3 -603,5 -656,67 -42,49 -78,121 -68,137 5,9 293,10 1232,5 1197,-7 1226,-8 1264,-27 z M 3750,5610 c 150,-7 157,-9 219,-41 73,-39 132,-92 179,-164 51,-78 135,-157 204,-192 129,-64 113,-63 747,-63 529,0 583,-2 661,-19 226,-51 294,-116 393,-376 8,-22 22,-59 31,-82 9,-24 22,-60 30,-80 8,-21 21,-57 30,-80 9,-24 23,-62 32,-85 9,-24 22,-60 30,-80 8,-21 20,-55 28,-75 8,-21 21,-57 30,-80 9,-24 23,-62 32,-85 9,-24 22,-58 30,-76 8,-18 14,-41 14,-50 0,-10 7,-27 15,-38 8,-10 15,-28 15,-40 0,-11 7,-29 15,-40 8,-10 15,-27 15,-36 0,-10 6,-32 14,-50 8,-18 22,-53 31,-78 9,-25 23,-58 31,-73 8,-16 14,-36 14,-46 0,-9 7,-26 15,-37 8,-10 15,-28 15,-40 0,-11 7,-29 15,-40 8,-10 15,-27 15,-36 0,-10 6,-32 14,-50 8,-18 21,-51 29,-73 21,-58 42,-114 61,-162 9,-24 23,-61 31,-83 8,-22 22,-59 31,-82 9,-24 23,-61 31,-83 38,-101 47,-122 62,-155 28,-62 70,-108 135,-149 78,-49 127,-105 155,-177 65,-171 -32,-383 -214,-472 -124,-60 11,-57 -2410,-57 -2041,0 -2225,1 -2276,17 -98,29 -164,66 -228,129 -88,87 -119,158 -145,334 -8,55 -20,134 -26,175 -7,41 -16,107 -20,145 -10,87 -26,195 -45,301 -8,45 -15,99 -15,120 0,22 -5,59 -11,84 -6,25 -15,81 -19,125 -5,44 -14,114 -20,155 -6,41 -17,118 -25,170 -7,52 -19,129 -25,170 -7,41 -15,107 -20,145 -4,39 -12,97 -18,130 -6,33 -18,114 -27,180 -21,159 -42,301 -60,406 -8,47 -15,98 -15,114 0,16 -7,67 -15,114 -16,96 -38,242 -56,374 -19,135 12,228 95,292 71,54 57,53 1061,53 512,-1 1000,-4 1085,-8 z"
                id="path1" />
            <path fill="{{COLOR_SECONDARY}}"
                d="m 3860,4995 c -303.6151,-152.1586 -610.3102,-298.4679 -913.25,-451.75 -44.9663,-18.6912 -74.1991,-48.9688 -61.75,-98.6952 0,-399.1849 0,-798.3699 0,-1197.5548 163.92,-104.9111 342.8389,-184.1717 510.625,-282.375 25.2188,80.4213 6.8237,187.0832 14.0718,276.8445 5.2117,182.9142 -10.8487,367.7649 16.563,549.302 36.3801,131.6071 123.7314,254.8475 242.353,323.8281 124.85,60.6961 271.2665,97.6559 406.2622,47.9004 91.2031,-26.2341 174.0189,-75.0134 237.6887,-146.9624 92.5535,-87.5041 135.5332,-213.9943 152.8425,-337.1001 22.4144,-117.8099 156.3039,-188.9382 264.3438,-134.6875 36.2331,32.4227 92.8024,73.4271 90.25,127.4726 0,285.9258 0,571.8516 0,857.7774 -187.1913,118.4018 -388.6738,212.8698 -580.6406,323.3906 C 4130.6618,4906.6334 4028.4348,4974.9931 3915,5019 c -19.5087,-5.1135 -37.0866,-15.1278 -55,-24 z"
                id="path2" />
            <path fill="{{COLOR_TERTIARY}}"
                d="m 5177,4323 c -18.0278,-264.0746 8.0046,-530.515 -22.8887,-793.7969 -38.9042,-190.544 -206.8011,-343.4555 -397.0293,-376.5293 -124.4749,-32.4848 -257.124,10.6155 -366.1523,70.6719 C 4272.3099,3307.9183 4171.7634,3427.8408 4146,3575 c -17.6729,92.1319 -60.5098,212.1305 -168.75,223.9844 -94.2582,18.5418 -208.3959,-39.6144 -208.4077,-144.7354 -8.494,-283.2605 -10.7742,-567.0718 -2.8877,-850.3799 31.7274,-85.005 150.5687,-99.6895 220.188,-151.4609 C 4219.7986,2526.6917 4454.787,2403.5157 4688,2277 c 324,162 648,324 972,486 -1.7712,412.4316 4.2935,824.9887 -4.2641,1237.3186 13.5983,126.9035 -145.8617,136.5136 -221.9449,198.5681 C 5349.5384,4235.0756 5261.1928,4311.0423 5177,4323 Z"
                id="path3" />
        </g>
    </g>
</svg>